<?xml version="1.0" standalone="no"?>
<!DOCTYPE svg PUBLIC "-//W3C//DTD SVG 20010904//EN"
 "http://www.w3.org/TR/2001/REC-SVG-20010904/DTD/svg10.dtd">
<svg version="1.0" xmlns="http://www.w3.org/2000/svg"
 width="100" height="100" viewBox="0 0 237.000000 237.000000"
 preserveAspectRatio="xMidYMid meet">

<g transform="translate(0.000000,237.000000) scale(0.100000,-0.100000)"
fill="#000000" stroke="none">
<path d="M1590 2303 c0 -5 23 -42 50 -83 47 -71 50 -78 49 -140 l0 -65 -56
-40 c-31 -22 -97 -70 -147 -107 -50 -38 -95 -68 -100 -68 -5 0 41 -47 102
-106 90 -85 118 -118 147 -176 35 -70 44 -108 26 -108 -5 0 -45 16 -88 36
-179 83 -279 114 -375 114 -48 0 -68 4 -68 13 0 7 -9 29 -20 50 -11 20 -20 39
-20 41 0 2 23 6 51 8 89 9 88 36 -1 64 -37 12 -38 15 -29 117 3 37 -23 63 -84
83 -54 18 -132 15 -179 -7 -35 -15 -50 -61 -47 -136 3 -56 2 -58 -24 -61 -23
-3 -27 -8 -27 -37 0 -25 5 -35 20 -40 15 -5 20 -15 20 -41 0 -34 0 -34 -47
-34 -27 0 -97 7 -158 15 -60 8 -127 12 -150 8 -87 -13 -168 -73 -199 -147 -14
-35 -82 -274 -128 -456 -16 -63 -30 -144 -31 -180 l-2 -65 31 3 c31 3 32 2 38
-45 19 -133 176 -326 176 -215 0 14 10 36 22 49 17 18 22 37 24 86 1 55 4 62
21 60 16 -2 25 12 47 75 35 98 84 202 85 180 1 -10 13 -52 27 -93 23 -66 24
-79 14 -112 -7 -21 -21 -47 -31 -58 -14 -15 -21 -48 -29 -133 -9 -95 -15 -122
-43 -174 -30 -57 -32 -70 -35 -178 l-4 -116 54 -13 c180 -42 365 -10 328 58
-7 14 -7 21 0 21 5 0 10 11 10 25 0 68 22 125 68 176 26 29 58 73 72 98 17 31
32 46 45 46 17 0 20 -6 18 -48 -1 -26 -11 -79 -22 -116 -20 -67 -27 -144 -15
-186 5 -19 14 -20 174 -20 162 0 170 1 192 23 20 19 21 25 10 43 -10 16 -11
24 -1 35 9 11 10 49 6 142 l-6 126 44 136 c39 121 63 216 80 321 l5 36 101 22
c92 19 199 28 199 16 0 -3 36 -139 80 -303 149 -547 141 -526 214 -561 53 -26
98 -27 151 -1 75 36 98 119 60 220 -9 25 -25 72 -35 105 -10 33 -54 177 -99
320 -253 807 -244 776 -244 850 0 38 11 122 23 185 42 215 4 339 -127 417 -67
39 -213 70 -213 46z m166 -43 c80 -34 130 -94 159 -189 13 -43 6 -174 -15
-279 -25 -129 -25 -187 -1 -260 11 -31 24 -73 29 -92 13 -45 117 -379 256
-821 100 -319 104 -338 81 -390 -22 -47 -58 -69 -114 -69 -92 0 -125 44 -176
235 -20 77 -43 160 -50 185 -8 25 -66 239 -130 475 -88 324 -125 445 -150 491
-30 53 -110 141 -200 218 l-30 26 21 18 c12 9 78 59 148 110 l126 93 0 76 c0
73 -2 79 -38 127 -62 82 -61 80 -10 73 24 -3 66 -16 94 -27z m-790 -372 l7
-23 8 23 c11 28 26 28 35 0 l7 -23 8 23 c5 13 13 21 19 17 10 -6 -18 -75 -30
-75 -4 0 -12 10 -18 23 l-11 22 0 -22 c-1 -35 -18 -27 -40 17 -15 31 -16 40
-6 40 8 0 17 -10 21 -22z m-29 -181 c40 -18 72 -38 73 -45 0 -9 -7 -11 -21 -7
-15 5 -19 4 -15 -4 10 -16 56 -13 62 4 19 48 74 -38 74 -114 0 -75 -15 -85
-116 -77 -92 8 -135 18 -170 41 -22 14 -24 22 -24 91 0 67 -2 76 -20 81 -11 3
-20 12 -20 20 0 11 7 13 25 9 17 -4 25 -2 25 7 0 20 20 36 39 30 9 -2 48 -19
88 -36z m-264 -397 c21 -73 37 -98 37 -58 0 15 5 50 12 78 11 48 13 51 41 48
29 -3 32 -7 51 -78 18 -69 20 -73 27 -45 33 132 30 125 61 125 25 0 29 -3 23
-17 -3 -10 -16 -62 -27 -115 -21 -95 -22 -98 -49 -98 -33 0 -34 1 -63 86 l-23
65 -6 -38 c-4 -21 -7 -55 -7 -75 0 -36 -2 -38 -33 -38 -30 0 -35 4 -56 53 -44
100 -69 166 -65 170 2 2 16 4 31 3 24 -1 29 -7 46 -66z m410 60 c55 0 57 -1
57 -26 0 -26 -1 -26 -67 -23 -63 4 -68 2 -68 -16 0 -18 8 -20 63 -23 54 -3 62
-6 62 -22 0 -18 -7 -20 -65 -20 -63 0 -65 -1 -65 -25 0 -24 2 -25 65 -25 58 0
65 -2 65 -20 0 -19 -7 -20 -90 -20 l-90 0 -2 48 c-1 42 0 171 1 181 1 2 18 1
39 -3 20 -3 63 -6 95 -6z m275 -36 c23 -15 30 -58 12 -69 -6 -4 -7 -13 -1 -24
6 -10 7 -28 4 -40 -9 -35 -53 -51 -143 -51 l-82 0 6 38 c3 20 8 68 11 106 l7
68 81 -7 c45 -3 92 -13 105 -21z m-28 -212 c0 -11 -247 -22 -487 -22 -113 0
-183 4 -183 10 0 6 101 11 268 13 147 1 297 3 335 5 37 1 67 -2 67 -6z m-150
-42 c0 -5 -15 -14 -32 -19 l-33 -9 30 -1 c31 -1 25 -15 -10 -24 -16 -4 -14 -5
7 -6 22 -1 28 5 38 34 11 32 15 35 51 35 44 0 46 -4 23 -48 -15 -31 -34 -43
-34 -22 0 6 -7 10 -15 10 -8 0 -15 -7 -15 -15 0 -8 -8 -15 -19 -15 -10 0 -33
-3 -51 -7 l-33 -6 6 36 c4 27 2 37 -7 37 -8 0 -16 -17 -20 -40 -8 -51 -26 -52
-26 -1 0 38 0 38 -41 38 l-42 0 32 -13 c33 -14 40 -34 17 -53 -15 -12 -68 -10
-100 4 -13 6 -21 5 -24 -3 -2 -7 -14 -12 -26 -12 -17 0 -26 8 -34 33 l-10 32
-1 -32 c-1 -40 -11 -42 -34 -5 l-17 27 6 -27 c3 -16 2 -28 -3 -28 -8 0 -43 72
-43 90 0 20 30 9 47 -17 l17 -26 6 24 c9 35 38 37 46 2 11 -46 19 -50 24 -13
7 47 36 53 51 11 7 -20 18 -31 29 -31 11 0 22 -5 25 -10 4 -6 11 -7 17 -4 6 4
-4 13 -21 20 -22 9 -31 19 -29 31 3 15 16 18 93 21 50 1 95 4 100 6 20 8 55 6
55 -4z m-920 -334 c86 -26 110 -42 93 -60 -4 -3 -6 -28 -4 -54 1 -30 -3 -54
-13 -67 -15 -19 -15 -18 -16 18 0 20 -5 37 -11 37 -8 0 -9 -20 -4 -65 3 -36 3
-65 -2 -65 -23 1 -38 23 -43 67 -6 43 -8 46 -17 24 l-10 -24 -21 35 c-27 44
-52 113 -52 144 0 20 5 24 28 24 15 0 47 -6 72 -14z"/>
<path d="M1689 1943 c-1 -5 -1 -11 -1 -15 1 -3 -6 -12 -16 -20 -15 -12 -16
-11 -3 5 16 21 -1 23 -19 2 -7 -8 -16 -12 -21 -10 -4 3 -6 -4 -4 -15 2 -12 0
-18 -6 -14 -13 7 -39 -14 -39 -33 0 -22 42 -73 61 -73 10 0 31 12 46 26 l28
26 -32 -22 c-44 -29 -42 -19 4 16 20 15 33 22 29 16 -11 -18 6 -14 32 7 27 24
27 31 1 75 -19 32 -57 50 -60 29z m25 -79 c3 -8 2 -12 -4 -9 -6 3 -10 10 -10
16 0 14 7 11 14 -7z m-60 -40 c3 -8 2 -12 -4 -9 -6 3 -10 10 -10 16 0 14 7 11
14 -7z m-14 -29 c0 -5 -5 -3 -10 5 -5 8 -10 20 -10 25 0 6 5 3 10 -5 5 -8 10
-19 10 -25z"/>
<path d="M890 1650 c0 -5 5 -10 11 -10 5 0 7 5 4 10 -3 6 -8 10 -11 10 -2 0
-4 -4 -4 -10z"/>
<path d="M1223 1303 c-8 -21 2 -26 49 -27 32 -1 43 3 43 14 0 21 -85 33 -92
13z"/>
<path d="M1220 1209 c0 -18 5 -20 42 -17 31 2 44 8 46 21 3 14 -4 17 -42 17
-40 0 -46 -3 -46 -21z"/>
<path d="M1210 1060 c0 -5 4 -10 9 -10 6 0 13 5 16 10 3 6 -1 10 -9 10 -9 0
-16 -4 -16 -10z"/>
<path d="M885 1030 c3 -5 8 -10 11 -10 2 0 4 5 4 10 0 6 -5 10 -11 10 -5 0 -7
-4 -4 -10z"/>
<path d="M1362 2081 c-23 -73 -7 -203 29 -247 13 -16 31 -5 138 85 l54 46 -51
22 c-37 16 -61 36 -92 78 -22 30 -47 55 -54 55 -7 0 -18 -17 -24 -39z m62 -41
c24 -37 54 -57 110 -75 17 -5 15 -9 -18 -31 -21 -15 -46 -34 -56 -43 -50 -45
-49 -45 -65 -7 -21 49 -20 196 0 196 1 0 14 -18 29 -40z"/>
</g>
</svg>
